# AST/ASF file generated using VICON BodyLanguage
# -----------------------------------------------
:version 1.10
:name VICON
:units
  mass 1.0
  length 0.45
  angle deg
:documentation
   .ast/.asf automatically generated from VICON data using
   VICON BodyBuilder and BodyLanguage model FoxedUp or BRILLIANT.MOD
:root
   order TX TY TZ RX RY RZ
   axis XYZ
   position 0 0 0  
   orientation 0 0 0 
:bonedata
  begin
     id 1 
     name lhipjoint
     direction 0.646657 -0.683706 0.338203 
     length 2.4948 
     axis 0 0 0  XYZ
  end
  begin
     id 2 
     name lfemur
     direction 0.34202 -0.939693 0  
     length 6.79491  
     axis 0 0 20  XYZ
    dof rx ry rz
    limits (-160.0 20.0)
           (-70.0 70.0)
           (-60.0 70.0)
  end
  begin
     id 3 
     name ltibia
     direction 0.34202 -0.939693 0   
     length 7.56807   
     axis 0 0 20   XYZ
    dof rx
    limits (-10.0 170.0)
  end
  begin
     id 4 
     name lfoot
     direction 0.0679796 -0.186772 0.980048   
     length 2.53018   
     axis -90 7.62852e-016 20   XYZ
    dof rx rz
    limits (-45.0 90.0)
           (-70.0 20.0)
  end
  begin
     id 5 
     name ltoes
     direction 1.53625e-011 -4.21881e-011 1   
     length 1.26912   
     axis -90 7.62852e-016 20   XYZ
    dof rx
    limits (-90.0 20.0)
  end
  begin
     id 6 
     name rhipjoint
     direction -0.618868 -0.704065 0.348274   
     length 2.42265  
     axis 0 0 0  XYZ 
  end
  begin
     id 7 
     name rfemur
     direction -0.34202 -0.939693 0   
     length 6.73814   
     axis 0 0 -20   XYZ
    dof rx ry rz
    limits (-160.0 20.0)
           (-70.0 70.0)
           (-70.0 60.0)
  end
  begin
     id 8 
     name rtibia
     direction -0.34202 -0.939693 0   
     length 7.66799   
     axis 0 0 -20   XYZ
    dof rx
    limits (-10.0 170.0)
 end
 begin
     id 9 
     name rfoot
     direction -0.0727352 -0.199838 0.977125   
     length 2.57224  
     axis -90 -7.62852e-016 -20   XYZ
    dof rx rz
    limits (-45.0 90.0)
           (-20.0 70.0)
  end
  begin
     id 10 
     name rtoes
     direction -1.53501e-011 -4.21858e-011 1   
     length 1.28858   
     axis -90 -7.62852e-016 -20   XYZ
    dof rx
    limits (-90.0 20.0)
  end
  begin
     id 11 
     name lowerback
     direction -0.0172471 0.995767 -0.0902851   
     length 2.20206   
     axis 0 0 0   XYZ
    dof rx ry rz
    limits (-20.0 45.0)
           (-30.0 30.0)
           (-30.0 30.0)
  end
  begin
     id 12 
     name upperback
     direction -0.000110737 0.999714 0.0239043   
     length 2.19523   
     axis 0 0 0   XYZ
    dof rx ry rz
    limits (-20.0 45.0)
           (-30.0 30.0)
           (-30.0 30.0)
  end
  begin
     id 13 
     name thorax
     direction 0.00704869 0.997783 0.0661741   
     length 2.21977   
     axis 0 0 0   XYZ
    dof rx ry rz
    limits (-20.0 45.0)
           (-30.0 30.0)
           (-30.0 30.0)
  end
  begin
     id 14 
     name lowerneck
     direction -0.00407501 0.995527 0.0943846   
     length 1.83142   
     axis 0 0 0   XYZ
    dof rx ry rz
    limits (-20.0 45.0)
           (-30.0 30.0)
           (-30.0 30.0)
  end
  begin
     id 15 
     name upperneck
     direction 0.0640586 0.986486 -0.150807   
     length 1.84616   
     axis 0 0 0   XYZ
    dof rx ry rz
    limits (-20.0 45.0)
           (-30.0 30.0)
           (-30.0 30.0)
  end
  begin
     id 16
     name head
     direction 0.0188017 0.99791 -0.0618239  
     length 1.85932  
     axis 0 0 0   XYZ
    dof rx ry rz
    limits (-20.0 45.0)
           (-30.0 30.0)
           (-30.0 30.0)
  end
  begin
     id 17 
     name lclavicle
     direction 0.976074 0.206905 0.066852  
     length 3.81043  
     axis 0 0 0   XYZ
    dof ry rz
    limits (-20.0 10.0)
           (0.0 20.0)
  end
  begin
     id 18 
     name lhumerus
     direction 1 -4.48971e-011 1.86916e-027   
     length 5.37587   
     axis 180 -30 -90   XYZ
    dof rx ry rz
    limits (-60.0 90.0)
           (-90.0 90.0)
           (-90.0 90.0)
  end
  begin
     id 19
     name lradius
     direction 1 -4.48968e-011 1.69187e-027   
     length 3.35977   
     axis 180 -30 -90   XYZ
    dof rx
    limits (-10.0 170.0)
  end
  begin
     id 20
     name lwrist
     direction 1 -4.48968e-011 5.8978e-027   
     length 1.67988   
     axis -3.27506e-015 90 90   XYZ
    dof ry
    limits (-180.0 0.0)
 end
  begin
     id 21 
     name lhand
     direction 1 -4.49028e-011 1.18071e-026   
     length 0.561859   
     axis -7.52654e-015 90 90   XYZ
    dof rx rz
    limits (-90.0 90.0)
           (-45.0 45.0)
  end
  begin
     id 22 
     name lfingers
     direction 1 -4.48927e-011 2.35758e-026   
     length 0.452985   
     axis -1.50534e-014 90 90   XYZ
    dof rx
    limits (0.0 90.0)
  end
  begin
     id 23
     name lthumb
     direction 0.707107 -6.34898e-011 0.707107   
     length 0.650399   
     axis -90 45 5.69224e-014   XYZ
    dof rx rz
    limits (-45.0 45.0)
           (-45.0 45.0)
  end
  begin
     id 24 
     name rclavicle
     direction -0.988403 0.151789 0.00439714   
     length 3.6942  
     axis 0 0 0   XYZ 
    dof ry rz
    limits (-10.0 20.0)
           (-20.0 0.0)
  end
  begin
     id 25 
     name rhumerus
     direction -1 -4.48978e-011 1.62495e-027  
     length 5.22819   
     axis 180 30 90   XYZ
    dof rx ry rz
    limits (-90.0 60.0)
           (-90.0 90.0)
           (-90.0 90.0)
  end
  begin
     id 26 
     name rradius
     direction -1 -4.48961e-011 3.47796e-027   
     length 3.40764   
     axis 180 30 90   XYZ
    dof rx
    limits (-10.0 170.0)
  end
  begin
     id 27 
     name rwrist
     direction -1 -4.48949e-011 5.89602e-027   
     length 1.70382   
     axis -3.27506e-015 -90 -90   XYZ
    dof ry
    limits (-180.0 0.0)
  end
  begin
     id 28
     name rhand
     direction -1 -4.48977e-011 1.17973e-026   
     length 0.583255   
     axis -7.52654e-015 -90 -90   XYZ
    dof rx rz
    limits (-90.0 90.0)
           (-45.0 45.0)
  end
  begin
     id 29
     name rfingers
     direction -1 -4.49099e-011 2.36408e-026   
     length 0.470235   
     axis -1.50534e-014 -90 -90   XYZ
    dof rx
    limits (0.0 90.0)
  end
  begin
     id 30
     name rthumb
     direction -0.707107 -6.35011e-011 0.707107   
     length 0.675167   
     axis -90 -45 -5.69224e-014   XYZ
    dof rx rz
    limits (-45.0 45.0)
           (-45.0 45.0)
  end
:hierarchy
  begin
    root lhipjoint rhipjoint lowerback
    lhipjoint lfemur
    lfemur ltibia
    ltibia lfoot
    lfoot ltoes
    rhipjoint rfemur
    rfemur rtibia
    rtibia rfoot
    rfoot rtoes
    lowerback upperback
    upperback thorax
    thorax lowerneck lclavicle rclavicle
    lowerneck upperneck
    upperneck head
    lclavicle lhumerus
    lhumerus lradius
    lradius lwrist
    lwrist lhand lthumb
    lhand lfingers
    rclavicle rhumerus
    rhumerus rradius
    rradius rwrist
    rwrist rhand rthumb
    rhand rfingers
  end

#!OML:ASF G:\JayActor3\Patient Classification 1\Patient 1\Session 2\male.ASF
:FULLY-SPECIFIED
:DEGREES
583
root 6.3656 16.4896 -6.23383 246.765 -81.0948 -248.61
lowerback 4.85446 -6.39994 -13.8501
upperback -3.13187 -9.58314 0.301455
thorax -3.78269 -4.3597 8.57007
lowerneck 2.39356 -14.5372 -14.0765
upperneck 2.02714 -20.8861 18.042
head 3.62465 -10.522 6.61102
rclavicle 1.32192e-013 8.34896e-015
rhumerus -53.2787 -15.1672 -38.268
rradius 13.3113
rwrist 9.39907
rhand -20.391 2.50488
rfingers 7.12502
rthumb 5.96235 -27.3912
lclavicle 1.32192e-013 8.34896e-015
lhumerus -10.1792 -5.95924 77.8334
lradius 62.7017
lwrist 16.8144
lhand -22.5525 15.1838
lfingers 7.12502
lthumb 3.87522 45.1283
rfemur -36.9993 9.27796 16.4598
rtibia 32.4275
rfoot -18.9064 -0.704646
rtoes 7.9821
lfemur 22.4612 13.3014 -30.8293
ltibia 1.27222e-014
lfoot -2.91078 -12.8069
ltoes 8.9658
584
root 6.21639 16.4717 -6.23043 247.449 -81.0014 -249.093
lowerback 4.65203 -6.48774 -13.9413
upperback -3.18252 -9.67738 0.33939
thorax -3.68035 -4.41027 8.63232
lowerneck 2.66467 -14.6757 -14.161
upperneck 2.02448 -21.118 18.07
head 3.62865 -10.6502 6.62428
rclavicle -8.16508e-014 -1.78906e-014
rhumerus -53.6413 -16.2677 -36.4684
rradius 12.9813
rwrist 10.642
rhand -20.7116 2.38893
rfingers 7.12502
rthumb 5.65278 -27.5157
lclavicle -8.16508e-014 -1.78906e-014
lhumerus -10.2954 -5.69165 78.1292
lradius 63.6558
lwrist 17.2416
lhand -22.7073 15.0196
lfingers 7.12502
lthumb 3.7258 44.9668
rfemur -36.8274 8.82452 16.5409
rtibia 31.9493
rfoot -18.8177 -0.422909
rtoes 8.90373
lfemur 22.7833 13.0962 -30.9794
ltibia -7.63333e-014
lfoot -2.781 -12.6895
ltoes 8.77604
585
root 6.06351 16.4567 -6.22524 247.928 -80.9319 -249.38
lowerback 4.4413 -6.57147 -13.9654
upperback -3.24502 -9.76034 0.390692
thorax -3.59596 -4.45511 8.67227
lowerneck 2.92075 -14.8025 -14.2358
upperneck 2.03018 -21.33 18.0681
head 3.63009 -10.7675 6.62858
rclavicle -1.28713e-014 -6.36111e-015
rhumerus -54.0464 -17.482 -34.5543
rradius 12.6446
rwrist 11.9998
rhand -21.0509 2.30122
rfingers 7.12502
rthumb 5.32519 -27.6119
lclavicle -1.28713e-014 -6.36111e-015
lhumerus -10.5295 -5.37422 78.5131
lradius 64.5007
lwrist 17.7061
lhand -22.8581 14.8424
lfingers 7.12502
lthumb 3.58016 44.792
rfemur -36.5752 8.40715 16.6247
rtibia 31.6561
rfoot -18.6429 -0.154122
rtoes 9.66707
lfemur 23.1289 12.9087 -31.0883
ltibia 2.54444e-014
lfoot -2.56639 -12.5525
ltoes 8.33506
586
root 5.90649 16.4455 -6.21905 248.231 -80.8913 -249.514
lowerback 4.2252 -6.65128 -13.9318
upperback -3.30927 -9.83275 0.454947
thorax -3.51894 -4.49555 8.69427
lowerneck 3.15359 -14.921 -14.2969
upperneck 2.0445 -21.5261 18.04
head 3.6309 -10.8754 6.62327
rclavicle 2.64384e-014 -1.74931e-014
rhumerus -54.4839 -18.7576 -32.5998
rradius 12.3152
rwrist 13.4004
rhand -21.3964 2.22876
rfingers 7.12502
rthumb 4.99164 -27.6924
lclavicle 2.64384e-014 -1.74931e-014
lhumerus -10.8737 -5.0158 78.978
lradius 65.2287
lwrist 18.1927
lhand -23.0071 14.6798
lfingers 7.12502
lthumb 3.43624 44.6318
rfemur -36.2283 8.05023 16.7096
rtibia 31.5333
rfoot -18.4136 -0.0111573
rtoes 10.0609
lfemur 23.5103 12.7325 -31.1443
ltibia 6.36111e-014
lfoot -2.24332 -12.4027
ltoes 7.7125
587
root 5.74499 16.4385 -6.21223 248.353 -80.8784 -249.495
lowerback 4.00924 -6.72644 -13.85
upperback -3.37532 -9.89551 0.533295
thorax -3.45084 -4.53158 8.70542
lowerneck 3.37531 -15.0289 -14.3492
upperneck 2.06415 -21.7045 17.9897
head 3.62875 -10.9738 6.61164
rclavicle 9.6013e-014 1.27222e-014
rhumerus -54.9086 -19.908 -30.8224
rradius 12.0385
rwrist 14.5928
rhand -21.7438 2.14273
rfingers 7.12502
rthumb 4.65616 -27.7861
lclavicle 9.6013e-014 1.27222e-014
lhumerus -11.3362 -4.62018 79.5183
lradius 65.8362
lwrist 18.6766
lhand -23.1475 14.5358
lfingers 7.12502
lthumb 3.3007 44.49
rfemur -35.7921 7.72413 16.8155
rtibia 31.5584
rfoot -18.1448 -0.103606
rtoes 9.83614
lfemur 23.9378 12.5693 -31.1438
ltibia 2.22639e-014
lfoot -1.79654 -12.2471
ltoes 6.94938
588
root 5.57869 16.4375 -6.20535 248.308 -80.8937 -249.342
lowerback 3.79305 -6.79528 -13.7294
upperback -3.43753 -9.94677 0.624827
thorax -3.38461 -4.56282 8.70936
lowerneck 3.58116 -15.1302 -14.384
upperneck 2.08847 -21.8698 17.9166
head 3.62383 -11.0647 6.5914
rclavicle 1.29508e-013 2.78299e-014
rhumerus -55.3109 -20.9463 -29.2332
rradius 11.8087
rwrist 15.598
rhand -22.0812 2.06419
rfingers 7.12502
rthumb 4.33032 -27.8715
lclavicle 1.29508e-013 2.78299e-014
lhumerus -11.9048 -4.20018 80.1278
lradius 66.3107
lwrist 19.1422
lhand -23.2835 14.3961
lfingers 7.12502
lthumb 3.16931 44.3522
rfemur -35.2922 7.39549 16.9614
rtibia 31.697
rfoot -17.8264 -0.412591
rtoes 9.23151
lfemur 24.4136 12.4158 -31.0816
ltibia 5.08889e-014
lfoot -1.2091 -12.0901
ltoes 6.12197
589
root 5.40767 16.4438 -6.1988 248.06 -80.9495 -249.015
lowerback 3.5788 -6.85926 -13.5644
upperback -3.50325 -9.98912 0.737395
thorax -3.3283 -4.58969 8.71238
lowerneck 3.78724 -15.2202 -14.4141
upperneck 2.12077 -22.0191 17.8254
head 3.61594 -11.1475 6.56739
rclavicle 5.67033e-014 -3.18055e-015
rhumerus -55.6044 -21.6736 -28.0866
rradius 11.6614
rwrist 16.1484
rhand -22.4041 1.94208
rfingers 7.12502
rthumb 4.01859 -27.9998
lclavicle 5.67033e-014 -3.18055e-015
lhumerus -12.5829 -3.74899 80.8072
lradius 66.6394
lwrist 19.556
lhand -23.3956 14.2746
lfingers 7.12502
lthumb 3.06109 44.2324
rfemur -34.7649 7.04375 17.1703
rtibia 31.9032
rfoot -17.4475 -0.833681
rtoes 8.69699
lfemur 24.9307 12.2714 -30.9431
ltibia 4.77083e-014
lfoot -0.478429 -11.9223
ltoes 5.19609
590
root 5.23249 16.4585 -6.19239 247.533 -81.0543 -248.433
lowerback 3.3693 -6.91517 -13.3419
upperback -3.57001 -10.018 0.873993
thorax -3.28335 -4.61025 8.71106
lowerneck 3.97502 -15.3029 -14.4342
upperneck 2.17425 -22.1568 17.7101
head 3.61136 -11.2232 6.5345
rclavicle 4.03036e-014 2.54444e-014
rhumerus -55.7977 -22.1879 -27.2909
rradius 11.5692
rwrist 16.4027
rhand -22.7041 1.80271
rfingers 7.12502
rthumb 3.72883 -28.1444
lclavicle 4.03036e-014 2.54444e-014
lhumerus -13.3525 -3.26278 81.5508
lradius 66.8124
lwrist 19.8961
lhand -23.473 14.1682
lfingers 7.12502
lthumb 2.98628 44.127
rfemur -34.2379 6.65353 17.4562
rtibia 32.126
rfoot -17.0095 -1.21161
rtoes 8.54676
lfemur 25.4788 12.142 -30.7163
ltibia 2.8625e-014
lfoot 0.398573 -11.7346
ltoes 4.20362
591
root 5.05394 16.4812 -6.18602 246.646 -81.219 -247.509
lowerback 3.16634 -6.96331 -13.0483
upperback -3.6427 -10.0338 1.04242
thorax -3.25662 -4.6244 8.70706
lowerneck 4.13909 -15.3737 -14.4542
upperneck 2.26825 -22.2788 17.5658
head 3.61648 -11.2893 6.49188
rclavicle -9.49197e-015 -6.36111e-015
rhumerus -55.863 -22.4838 -26.8617
rradius 11.5226
rwrist 16.3758
rhand -22.9641 1.65085
rfingers 7.12502
rthumb 3.47778 -28.3005
lclavicle -9.49197e-015 -6.36111e-015
lhumerus -14.206 -2.72595 82.3553
lradius 66.8189
lwrist 20.1302
lhand -23.4931 14.0703
lfingers 7.12502
lthumb 2.96688 44.0294
rfemur -33.7253 6.23557 17.8237
rtibia 32.3214
rfoot -16.5426 -1.39937
rtoes 8.87084
lfemur 26.0446 12.0312 -30.3894
ltibia 4.13472e-014
lfoot 1.41691 -11.511
ltoes 3.12552
592
root 4.87288 16.5105 -6.17936 245.345 -81.4337 -246.185
lowerback 2.97069 -7.00101 -12.6845
upperback -3.71583 -10.0334 1.23853
thorax -3.244 -4.63127 8.6961
lowerneck 4.26409 -15.4339 -14.4667
upperneck 2.40372 -22.3842 17.3909
head 3.63299 -11.3447 6.4368
rclavicle 1.2921e-013 1.51076e-014
rhumerus -55.8063 -22.6114 -26.7552
rradius 11.5131
rwrist 16.1493
rhand -23.1694 1.49877
rfingers 7.12502
rthumb 3.27953 -28.4558
lclavicle 1.2921e-013 1.51076e-014
lhumerus -15.1194 -2.12541 83.2072
lradius 66.6538
lwrist 20.2245
lhand -23.4276 13.9695
lfingers 7.12502
lthumb 3.03013 43.9277
rfemur -33.2163 5.79445 18.2569
rtibia 32.4637
rfoot -16.0495 -1.27451
rtoes 9.66566
lfemur 26.6151 11.9456 -29.9734
ltibia 6.36111e-014
lfoot 2.56821 -11.2327
ltoes 1.93202
593
root 4.69043 16.5433 -6.1722 243.577 -81.6812 -244.4
lowerback 2.77656 -7.02748 -12.2602
upperback -3.79047 -10.0162 1.46072
thorax -3.24236 -4.63067 8.68076
lowerneck 4.33048 -15.4845 -14.4714
upperneck 2.60106 -22.4731 17.1702
head 3.6682 -11.3881 6.3623
rclavicle 7.60351e-014 5.56597e-014
rhumerus -55.6111 -22.552 -26.9976
rradius 11.5459
rwrist 15.7052
rhand -23.2997 1.35792
rfingers 7.12502
rthumb 3.15364 -28.5985
lclavicle 7.60351e-014 5.56597e-014
lhumerus -16.0836 -1.45046 84.0928
lradius 66.3239
lwrist 20.1656
lhand -23.2629 13.8643
lfingers 7.12502
lthumb 3.18925 43.8202
rfemur -32.7003 5.33518 18.7405
rtibia 32.5524
rfoot -15.5146 -0.804927
rtoes 10.7799
lfemur 27.1794 11.8918 -29.4888
ltibia 3.18055e-014
lfoot 3.83894 -10.8877
ltoes 0.665258
594
root 4.50721 16.5772 -6.16454 241.427 -81.9351 -242.226
lowerback 2.56868 -7.04348 -11.7984
upperback -3.86347 -9.9832 1.69852
thorax -3.23786 -4.62383 8.65952
lowerneck 4.33417 -15.5272 -14.4589
upperneck 2.84478 -22.5448 16.9091
head 3.71775 -11.4195 6.26895
rclavicle 8.80616e-014 1.03368e-014
rhumerus -55.2687 -22.2826 -27.6257
rradius 11.628
rwrist 15.0052
rhand -23.3418 1.23165
rfingers 7.12502
rthumb 3.11298 -28.7254
lclavicle 8.80616e-014 1.03368e-014
lhumerus -17.0749 -0.703021 84.9942
lradius 65.8315
lwrist 19.937
lhand -22.9932 13.7505
lfingers 7.12502
lthumb 3.44969 43.7023
rfemur -32.1689 4.84574 19.2486
rtibia 32.6077
rfoot -14.9335 -0.0904551
rtoes 11.8723
lfemur 27.7168 11.8628 -28.9706
ltibia 2.8625e-014
lfoot 5.23628 -10.4537
ltoes -0.518192
595
root 4.32373 16.61 -6.15655 239.061 -82.1694 -239.822
lowerback 2.33621 -7.05132 -11.3286
upperback -3.93537 -9.93864 1.94002
thorax -3.22159 -4.61283 8.63391
lowerneck 4.29767 -15.5623 -14.4305
upperneck 3.10366 -22.5991 16.625
head 3.77103 -11.4404 6.16517
rclavicle 4.55217e-014 2.06736e-014
rhumerus -54.7814 -21.7407 -28.6951
rradius 11.782
rwrist 13.9638
rhand -23.2819 1.1236
rfingers 7.12502
rthumb 3.17087 -28.8326
lclavicle 4.55217e-014 2.06736e-014
lhumerus -18.0802 0.114208 85.8916
lradius 65.1848
lwrist 19.5132
lhand -22.6125 13.6593
lfingers 7.12502
lthumb 3.81732 43.6049
rfemur -31.6222 4.27851 19.7609
rtibia 32.66
rfoot -14.3068 0.715995
rtoes 12.6781
lfemur 28.2149 11.8463 -28.4585
ltibia -4.77083e-014
lfoot 6.76463 -9.90412
ltoes -1.45391
